<svg width="28" height="30" viewBox="0 0 28 30" fill="none" xmlns="http://www.w3.org/2000/svg">
<path fill-rule="evenodd" clip-rule="evenodd" d="M6.5 0C3.18629 0 0.5 2.68629 0.5 6V24C0.5 27.3137 3.18629 30 6.5 30H21.5C24.8137 30 27.5 27.3137 27.5 24V6C27.5 2.68629 24.8137 0 21.5 0H6.5ZM8 21.375C7.37868 21.375 6.875 21.8787 6.875 22.5C6.875 23.1213 7.37868 23.625 8 23.625H14C14.6213 23.625 15.125 23.1213 15.125 22.5C15.125 21.8787 14.6213 21.375 14 21.375H8ZM6.875 15C6.875 14.3787 7.37868 13.875 8 13.875H20C20.6213 13.875 21.125 14.3787 21.125 15C21.125 15.6213 20.6213 16.125 20 16.125H8C7.37868 16.125 6.875 15.6213 6.875 15ZM8 6.375C7.37868 6.375 6.875 6.87868 6.875 7.5C6.875 8.12132 7.37868 8.625 8 8.625H20C20.6213 8.625 21.125 8.12132 21.125 7.5C21.125 6.87868 20.6213 6.375 20 6.375H8Z" fill="white"/>
</svg>
