<svg width="36" height="36" viewBox="0 0 36 36" fill="none" xmlns="http://www.w3.org/2000/svg">
<path fill-rule="evenodd" clip-rule="evenodd" d="M10.5 3C7.18629 3 4.5 5.68629 4.5 9V27C4.5 30.3137 7.18629 33 10.5 33H25.5C28.8137 33 31.5 30.3137 31.5 27V9C31.5 5.68629 28.8137 3 25.5 3H10.5ZM12 24.375C11.3787 24.375 10.875 24.8787 10.875 25.5C10.875 26.1213 11.3787 26.625 12 26.625H18C18.6213 26.625 19.125 26.1213 19.125 25.5C19.125 24.8787 18.6213 24.375 18 24.375H12ZM10.875 18C10.875 17.3787 11.3787 16.875 12 16.875H24C24.6213 16.875 25.125 17.3787 25.125 18C25.125 18.6213 24.6213 19.125 24 19.125H12C11.3787 19.125 10.875 18.6213 10.875 18ZM12 9.375C11.3787 9.375 10.875 9.87868 10.875 10.5C10.875 11.1213 11.3787 11.625 12 11.625H24C24.6213 11.625 25.125 11.1213 25.125 10.5C25.125 9.87868 24.6213 9.375 24 9.375H12Z" fill="white"/>
</svg>
