<svg width="214" height="214" viewBox="0 0 214 214" fill="none" xmlns="http://www.w3.org/2000/svg">
<g opacity="0.45">
<path d="M133.75 202.854H80.25C31.8325 202.854 11.1458 182.167 11.1458 133.75V80.25C11.1458 31.8325 31.8325 11.1458 80.25 11.1458H124.833C128.489 11.1458 131.521 14.1775 131.521 17.8333C131.521 21.4891 128.489 24.5208 124.833 24.5208H80.25C39.1442 24.5208 24.5208 39.1441 24.5208 80.25V133.75C24.5208 174.856 39.1442 189.479 80.25 189.479H133.75C174.856 189.479 189.479 174.856 189.479 133.75V89.1666C189.479 85.5108 192.511 82.4791 196.167 82.4791C199.823 82.4791 202.854 85.5108 202.854 89.1666V133.75C202.854 182.167 182.168 202.854 133.75 202.854Z" fill="#CED2D6"/>
<path d="M196.167 95.8542H160.5C130.005 95.8542 118.146 83.995 118.146 53.5V17.8333C118.146 15.1583 119.751 12.6617 122.248 11.6808C124.744 10.6108 127.598 11.235 129.559 13.1075L200.893 84.4408C202.765 86.3133 203.389 89.2558 202.319 91.7525C201.249 94.2492 198.842 95.8542 196.167 95.8542ZM131.521 33.9725V53.5C131.521 76.505 137.495 82.4792 160.5 82.4792H180.028L131.521 33.9725Z" fill="#CED2D6"/>
<path d="M115.917 122.604H62.4167C58.7608 122.604 55.7292 119.573 55.7292 115.917C55.7292 112.261 58.7608 109.229 62.4167 109.229H115.917C119.573 109.229 122.604 112.261 122.604 115.917C122.604 119.573 119.573 122.604 115.917 122.604Z" fill="#CED2D6"/>
<path d="M98.0833 158.271H62.4167C58.7608 158.271 55.7292 155.239 55.7292 151.583C55.7292 147.927 58.7608 144.896 62.4167 144.896H98.0833C101.739 144.896 104.771 147.927 104.771 151.583C104.771 155.239 101.739 158.271 98.0833 158.271Z" fill="#CED2D6"/>
</g>
</svg>
