<svg width="20" height="20" viewBox="0 0 20 20" fill="none" xmlns="http://www.w3.org/2000/svg">
<path d="M18.3333 4.04161V13.9499C18.3333 14.7583 17.675 15.4999 16.8667 15.5999L16.6083 15.6333C15.2417 15.8166 13.3167 16.3833 11.7667 17.0333C11.225 17.2583 10.625 16.8499 10.625 16.2583V4.66661C10.625 4.35828 10.8 4.07494 11.075 3.92494C12.6 3.09994 14.9083 2.36661 16.475 2.23328H16.525C17.525 2.23328 18.3333 3.04161 18.3333 4.04161Z" fill="#596066"/>
<path d="M8.92501 3.92494C7.40001 3.09994 5.09167 2.36661 3.52501 2.23328H3.46667C2.46667 2.23328 1.65834 3.04161 1.65834 4.04161V13.9499C1.65834 14.7583 2.31667 15.4999 3.12501 15.5999L3.38334 15.6333C4.75001 15.8166 6.67501 16.3833 8.22501 17.0333C8.76667 17.2583 9.36667 16.8499 9.36667 16.2583V4.66661C9.36667 4.34994 9.20001 4.07494 8.92501 3.92494ZM4.16667 6.44994H6.04167C6.38334 6.44994 6.66667 6.73328 6.66667 7.07494C6.66667 7.42494 6.38334 7.69994 6.04167 7.69994H4.16667C3.82501 7.69994 3.54167 7.42494 3.54167 7.07494C3.54167 6.73328 3.82501 6.44994 4.16667 6.44994ZM6.66667 10.1999H4.16667C3.82501 10.1999 3.54167 9.92494 3.54167 9.57494C3.54167 9.23328 3.82501 8.94994 4.16667 8.94994H6.66667C7.00834 8.94994 7.29167 9.23328 7.29167 9.57494C7.29167 9.92494 7.00834 10.1999 6.66667 10.1999Z" fill="#596066"/>
</svg>
