<svg width="16" height="18" viewBox="0 0 16 18" fill="none" xmlns="http://www.w3.org/2000/svg">
<path fill-rule="evenodd" clip-rule="evenodd" d="M5.29167 0.666748C5.29167 0.32157 5.01184 0.041748 4.66667 0.041748C4.32149 0.041748 4.04167 0.32157 4.04167 0.666748V1.94272C2.06187 2.16856 0.520985 3.83976 0.500213 5.87508H15.4998C15.479 3.83976 13.9381 2.16856 11.9583 1.94272V0.666748C11.9583 0.32157 11.6785 0.041748 11.3333 0.041748C10.9882 0.041748 10.7083 0.32157 10.7083 0.666748V1.91675H5.29167L5.29167 0.666748ZM0.5 7.12508H15.5V13.3334C15.5 15.5426 13.7091 17.3334 11.5 17.3334H4.5C2.29086 17.3334 0.5 15.5426 0.5 13.3334V7.12508ZM8 12.3334C8.46024 12.3334 8.83333 11.9603 8.83333 11.5001C8.83333 11.0398 8.46024 10.6667 8 10.6667C7.53976 10.6667 7.16667 11.0398 7.16667 11.5001C7.16667 11.9603 7.53976 12.3334 8 12.3334ZM12.1667 11.5001C12.1667 11.9603 11.7936 12.3334 11.3333 12.3334C10.8731 12.3334 10.5 11.9603 10.5 11.5001C10.5 11.0398 10.8731 10.6667 11.3333 10.6667C11.7936 10.6667 12.1667 11.0398 12.1667 11.5001ZM4.66667 12.3334C5.1269 12.3334 5.5 11.9603 5.5 11.5001C5.5 11.0398 5.1269 10.6667 4.66667 10.6667C4.20643 10.6667 3.83333 11.0398 3.83333 11.5001C3.83333 11.9603 4.20643 12.3334 4.66667 12.3334Z" fill="#383F45"/>
</svg>
