<svg width="36" height="36" viewBox="0 0 36 36" fill="none" xmlns="http://www.w3.org/2000/svg">
<path d="M31.5 15H4.5C3.675 15 3 15.675 3 16.5V24.285C3 24.585 3.015 24.885 3.045 25.185C3.345 29.805 6.195 32.655 10.815 32.955C11.115 32.985 11.415 33 11.715 33H24.285C24.585 33 24.885 32.985 25.185 32.955C29.805 32.655 32.655 29.805 32.955 25.185C32.985 24.885 33 24.585 33 24.285V16.5C33 15.675 32.325 15 31.5 15ZM12 24.225C12.51 24.975 13.2 25.59 13.995 25.995C14.565 26.265 14.79 26.94 14.505 27.51C14.31 27.9 13.905 28.125 13.5 28.125C13.335 28.125 13.155 28.08 13.005 28.005C11.835 27.435 10.845 26.55 10.14 25.485C9.54 24.585 9.54 23.415 10.14 22.515C10.845 21.45 11.835 20.565 13.005 19.995C13.56 19.71 14.235 19.935 14.505 20.49C14.79 21.06 14.565 21.735 13.995 22.005C13.2 22.41 12.51 23.025 12 23.775C11.91 23.91 11.91 24.09 12 24.225ZM26.175 25.485C25.455 26.55 24.465 27.435 23.31 28.005C23.145 28.08 22.98 28.125 22.815 28.125C22.395 28.125 22.005 27.9 21.81 27.51C21.525 26.94 21.75 26.265 22.305 25.995C23.115 25.59 23.805 24.975 24.3 24.225C24.405 24.09 24.405 23.91 24.3 23.775C23.805 23.025 23.115 22.41 22.305 22.005C21.75 21.735 21.525 21.06 21.81 20.49C22.08 19.935 22.755 19.71 23.31 19.995C24.465 20.565 25.455 21.45 26.175 22.515C26.775 23.415 26.775 24.585 26.175 25.485Z" fill="white"/>
<path d="M33 11.715V12C33 12.825 32.325 13.5 31.5 13.5L4.5 13.515C3.675 13.515 3 12.84 3 12.015V11.715C3 11.415 3.015 11.115 3.045 10.815C3.345 6.195 6.195 3.345 10.815 3.045C11.115 3.015 11.415 3 11.715 3H24.285C24.585 3 24.885 3.015 25.185 3.045C29.805 3.345 32.655 6.195 32.955 10.815C32.985 11.115 33 11.415 33 11.715Z" fill="white"/>
</svg>
