<svg width="28" height="28" viewBox="0 0 28 28" fill="none" xmlns="http://www.w3.org/2000/svg">
<path d="M24.5 11.6666H3.5C2.85834 11.6666 2.33334 12.1916 2.33334 12.8333V18.8883C2.33334 19.1216 2.345 19.355 2.36834 19.5883C2.60167 23.1816 4.81834 25.3983 8.41167 25.6316C8.645 25.655 8.87834 25.6666 9.11167 25.6666H18.8883C19.1217 25.6666 19.355 25.655 19.5883 25.6316C23.1817 25.3983 25.3983 23.1816 25.6317 19.5883C25.655 19.355 25.6667 19.1216 25.6667 18.8883V12.8333C25.6667 12.1916 25.1417 11.6666 24.5 11.6666ZM9.33334 18.8416C9.73 19.425 10.2667 19.9033 10.885 20.2183C11.3283 20.4283 11.5033 20.9533 11.2817 21.3966C11.13 21.7 10.815 21.875 10.5 21.875C10.3717 21.875 10.2317 21.84 10.115 21.7816C9.205 21.3383 8.435 20.65 7.88667 19.8216C7.42 19.1216 7.42 18.2116 7.88667 17.5116C8.435 16.6833 9.205 15.995 10.115 15.5516C10.5467 15.33 11.0717 15.505 11.2817 15.9366C11.5033 16.38 11.3283 16.905 10.885 17.115C10.2667 17.43 9.73 17.9083 9.33334 18.4916C9.26334 18.5966 9.26334 18.7366 9.33334 18.8416ZM20.3583 19.8216C19.7983 20.65 19.0283 21.3383 18.13 21.7816C18.0017 21.84 17.8733 21.875 17.745 21.875C17.4183 21.875 17.115 21.7 16.9633 21.3966C16.7417 20.9533 16.9167 20.4283 17.3483 20.2183C17.9783 19.9033 18.515 19.425 18.9 18.8416C18.9817 18.7366 18.9817 18.5966 18.9 18.4916C18.515 17.9083 17.9783 17.43 17.3483 17.115C16.9167 16.905 16.7417 16.38 16.9633 15.9366C17.1733 15.505 17.6983 15.33 18.13 15.5516C19.0283 15.995 19.7983 16.6833 20.3583 17.5116C20.825 18.2116 20.825 19.1216 20.3583 19.8216Z" fill="white"/>
<path d="M25.6667 9.11159V9.33325C25.6667 9.97492 25.1417 10.4999 24.5 10.4999L3.5 10.5116C2.85834 10.5116 2.33334 9.98659 2.33334 9.34492V9.11159C2.33334 8.87825 2.345 8.64492 2.36834 8.41159C2.60167 4.81825 4.81834 2.60159 8.41167 2.36825C8.645 2.34492 8.87834 2.33325 9.11167 2.33325H18.8883C19.1217 2.33325 19.355 2.34492 19.5883 2.36825C23.1817 2.60159 25.3983 4.81825 25.6317 8.41159C25.655 8.64492 25.6667 8.87825 25.6667 9.11159Z" fill="white"/>
</svg>
