<svg width="30" height="32" viewBox="0 0 30 32" fill="none" xmlns="http://www.w3.org/2000/svg">
<path fill-rule="evenodd" clip-rule="evenodd" d="M0 4.5C0 2.01472 2.01472 0 4.5 0H25.5C27.9853 0 30 2.01472 30 4.5V21C30 23.4853 27.9853 25.5 25.5 25.5H16.125V28.875H19.5C20.1213 28.875 20.625 29.3787 20.625 30C20.625 30.6213 20.1213 31.125 19.5 31.125H10.5C9.87868 31.125 9.375 30.6213 9.375 30C9.375 29.3787 9.87868 28.875 10.5 28.875H13.875V25.5H4.5C2.01472 25.5 0 23.4853 0 21V4.5ZM12.375 21C12.375 20.3787 12.8787 19.875 13.5 19.875H16.5C17.1213 19.875 17.625 20.3787 17.625 21C17.625 21.6213 17.1213 22.125 16.5 22.125H13.5C12.8787 22.125 12.375 21.6213 12.375 21Z" fill="white"/>
</svg>
