<svg width="28" height="28" viewBox="0 0 28 28" fill="none" xmlns="http://www.w3.org/2000/svg">
<path fill-rule="evenodd" clip-rule="evenodd" d="M2.33334 5.83337C2.33334 3.90038 3.90034 2.33337 5.83334 2.33337H22.1667C24.0997 2.33337 25.6667 3.90038 25.6667 5.83337V18.6667C25.6667 20.5997 24.0997 22.1667 22.1667 22.1667H14.875V24.7917H17.5C17.9832 24.7917 18.375 25.1835 18.375 25.6667C18.375 26.15 17.9832 26.5417 17.5 26.5417H10.5C10.0167 26.5417 9.625 26.15 9.625 25.6667C9.625 25.1835 10.0167 24.7917 10.5 24.7917H13.125V22.1667H5.83334C3.90034 22.1667 2.33334 20.5997 2.33334 18.6667V5.83337ZM11.9583 18.6667C11.9583 18.1835 12.3501 17.7917 12.8333 17.7917H15.1667C15.6499 17.7917 16.0417 18.1835 16.0417 18.6667C16.0417 19.15 15.6499 19.5417 15.1667 19.5417H12.8333C12.3501 19.5417 11.9583 19.15 11.9583 18.6667Z" fill="white"/>
</svg>
