<svg width="24" height="24" viewBox="0 0 24 24" fill="none" xmlns="http://www.w3.org/2000/svg">
<path d="M9 16L9.14709 16.7354C8.81544 16.8018 8.48043 16.6379 8.32918 16.3354L9 16ZM16 9L16.3354 8.32918C16.6379 8.48043 16.8018 8.81544 16.7354 9.14709L16 9ZM15.646 8.82299L15.3106 9.49381L15.3106 9.49381L15.646 8.82299ZM14.6835 6.29136L13.9871 6.01281L14.6835 6.29136ZM15.4971 4.25722L16.1935 4.53576L15.4971 4.25722ZM4.25722 15.4971L4.53576 16.1935L4.25722 15.4971ZM6.29136 14.6835L6.01281 13.9871H6.01281L6.29136 14.6835ZM8.82299 15.646L8.15217 15.9814V15.9814L8.82299 15.646ZM7.75 11C7.75 11.4142 7.41421 11.75 7 11.75C6.58579 11.75 6.25 11.4142 6.25 11H7.75ZM7.30448 9.46927L6.61157 9.18225L7.30448 9.46927ZM9.46927 7.30448L9.18225 6.61157L9.46927 7.30448ZM11 6.25C11.4142 6.25 11.75 6.58579 11.75 7C11.75 7.41421 11.4142 7.75 11 7.75V6.25ZM3.75 11C3.75 11.4142 3.41421 11.75 3 11.75C2.58579 11.75 2.25 11.4142 2.25 11H3.75ZM3.60896 7.93853L2.91605 7.65152L3.60896 7.93853ZM7.93853 3.60896L7.65152 2.91605V2.91605L7.93853 3.60896ZM11 2.25C11.4142 2.25 11.75 2.58579 11.75 3C11.75 3.41421 11.4142 3.75 11 3.75V2.25ZM3.75 17.3541V19H2.25V17.3541H3.75ZM19 3.75H17.3541V2.25H19V3.75ZM9 16C8.85291 15.2646 8.8527 15.2646 8.8525 15.2646C8.85244 15.2647 8.85225 15.2647 8.85214 15.2647C8.85192 15.2648 8.85174 15.2648 8.85159 15.2648C8.8513 15.2649 8.85116 15.2649 8.85117 15.2649C8.85118 15.2649 8.85178 15.2648 8.85296 15.2645C8.85532 15.264 8.85999 15.2631 8.86687 15.2615C8.88065 15.2585 8.90329 15.2533 8.93406 15.2459C8.99565 15.2309 9.08962 15.2066 9.21025 15.1711C9.45185 15.1 9.79836 14.9847 10.2046 14.8106C11.0204 14.461 12.0561 13.8833 12.9697 12.9697L14.0303 14.0303C12.9439 15.1167 11.7296 15.789 10.7954 16.1894C10.3266 16.3903 9.92315 16.525 9.6335 16.6101C9.48851 16.6528 9.37154 16.6832 9.28859 16.7034C9.2471 16.7135 9.21408 16.721 9.19026 16.7263C9.17834 16.7289 9.16873 16.7309 9.1615 16.7325C9.15789 16.7332 9.15488 16.7339 9.15247 16.7343C9.15127 16.7346 9.15022 16.7348 9.14932 16.735C9.14887 16.7351 9.14846 16.7352 9.14809 16.7352C9.1479 16.7353 9.14765 16.7353 9.14756 16.7353C9.14732 16.7354 9.14709 16.7354 9 16ZM12.9697 12.9697C13.8833 12.0561 14.461 11.0204 14.8106 10.2046C14.9847 9.79836 15.1 9.45184 15.1711 9.21025C15.2066 9.08962 15.2309 8.99565 15.2459 8.93406C15.2533 8.90329 15.2585 8.88065 15.2615 8.86687C15.2631 8.85999 15.264 8.85532 15.2645 8.85296C15.2648 8.85178 15.2649 8.85118 15.2649 8.85117C15.2649 8.85116 15.2649 8.8513 15.2648 8.85159C15.2648 8.85174 15.2648 8.85192 15.2647 8.85214C15.2647 8.85225 15.2647 8.85244 15.2646 8.8525C15.2646 8.8527 15.2646 8.85291 16 9C16.7354 9.14709 16.7354 9.14732 16.7353 9.14756C16.7353 9.14765 16.7353 9.1479 16.7352 9.14809C16.7352 9.14846 16.7351 9.14887 16.735 9.14932C16.7348 9.15022 16.7346 9.15127 16.7343 9.15247C16.7339 9.15488 16.7332 9.15789 16.7325 9.1615C16.7309 9.16873 16.7289 9.17834 16.7263 9.19026C16.721 9.21408 16.7135 9.2471 16.7034 9.28859C16.6832 9.37154 16.6528 9.48851 16.6101 9.6335C16.525 9.92316 16.3903 10.3266 16.1894 10.7954C15.789 11.7296 15.1167 12.9439 14.0303 14.0303L12.9697 12.9697ZM15.6646 9.67082L15.3106 9.49381L15.9814 8.15217L16.3354 8.32918L15.6646 9.67082ZM13.9871 6.01281L14.8008 3.97868L16.1935 4.53576L15.3798 6.5699L13.9871 6.01281ZM3.97868 14.8008L6.01281 13.9871L6.5699 15.3798L4.53576 16.1935L3.97868 14.8008ZM9.49381 15.3106L9.67082 15.6646L8.32918 16.3354L8.15217 15.9814L9.49381 15.3106ZM6.01281 13.9871C7.34076 13.4559 8.85419 14.0313 9.49381 15.3106L8.15217 15.9814C7.86143 15.3999 7.17351 15.1384 6.5699 15.3798L6.01281 13.9871ZM15.3106 9.49381C14.0313 8.85419 13.4559 7.34076 13.9871 6.01281L15.3798 6.5699C15.1384 7.17351 15.3999 7.86143 15.9814 8.15217L15.3106 9.49381ZM17.3541 3.75C16.8429 3.75 16.3833 4.06119 16.1935 4.53576L14.8008 3.97868C15.2184 2.93462 16.2296 2.25 17.3541 2.25V3.75ZM2.25 17.3541C2.25 16.2296 2.93462 15.2184 3.97868 14.8008L4.53576 16.1935C4.06119 16.3833 3.75 16.8429 3.75 17.3541H2.25ZM5 20.25C13.4223 20.25 20.25 13.4223 20.25 5H21.75C21.75 14.2508 14.2508 21.75 5 21.75V20.25ZM5 21.75C3.48122 21.75 2.25 20.5188 2.25 19H3.75C3.75 19.6904 4.30964 20.25 5 20.25V21.75ZM20.25 5C20.25 4.30964 19.6904 3.75 19 3.75V2.25C20.5188 2.25 21.75 3.48122 21.75 5H20.25ZM6.25 11C6.25 10.3762 6.37286 9.75855 6.61157 9.18225L7.99739 9.75628C7.83406 10.1506 7.75 10.5732 7.75 11H6.25ZM6.61157 9.18225C6.85028 8.60596 7.20016 8.08232 7.64124 7.64124L8.7019 8.7019C8.40011 9.00369 8.16072 9.36197 7.99739 9.75628L6.61157 9.18225ZM7.64124 7.64124C8.08232 7.20016 8.60596 6.85028 9.18225 6.61157L9.75628 7.99739C9.36197 8.16072 9.00369 8.40011 8.7019 8.7019L7.64124 7.64124ZM9.18225 6.61157C9.75855 6.37286 10.3762 6.25 11 6.25V7.75C10.5732 7.75 10.1506 7.83406 9.75628 7.99739L9.18225 6.61157ZM2.25 11C2.25 9.85093 2.47632 8.71312 2.91605 7.65152L4.30187 8.22554C3.93753 9.10516 3.75 10.0479 3.75 11H2.25ZM2.91605 7.65152C3.35578 6.58992 4.0003 5.62533 4.81281 4.81282L5.87348 5.87348C5.20025 6.5467 4.66622 7.34593 4.30187 8.22554L2.91605 7.65152ZM4.81281 4.81282C5.62533 4.0003 6.58992 3.35578 7.65152 2.91605L8.22554 4.30187C7.34593 4.66622 6.5467 5.20025 5.87348 5.87348L4.81281 4.81282ZM7.65152 2.91605C8.71312 2.47633 9.85093 2.25 11 2.25V3.75C10.0479 3.75 9.10515 3.93753 8.22554 4.30187L7.65152 2.91605Z" fill="#757B8A"/>
</svg>
