<svg width="36" height="36" viewBox="0 0 36 36" fill="none" xmlns="http://www.w3.org/2000/svg">
<path fill-rule="evenodd" clip-rule="evenodd" d="M18 3C14.6863 3 12 5.68629 12 9V18C12 21.3137 14.6863 24 18 24C21.3137 24 24 21.3137 24 18V9C24 5.68629 21.3137 3 18 3ZM9 15.375C9.62132 15.375 10.125 15.8787 10.125 16.5V18C10.125 22.3492 13.6508 25.875 18 25.875C22.3492 25.875 25.875 22.3492 25.875 18V16.5C25.875 15.8787 26.3787 15.375 27 15.375C27.6213 15.375 28.125 15.8787 28.125 16.5V18C28.125 23.2116 24.1874 27.5036 19.125 28.0632V30.75H22.5C23.1213 30.75 23.625 31.2537 23.625 31.875C23.625 32.4963 23.1213 33 22.5 33H13.5C12.8787 33 12.375 32.4963 12.375 31.875C12.375 31.2537 12.8787 30.75 13.5 30.75H16.875V28.0632C11.8126 27.5036 7.875 23.2116 7.875 18V16.5C7.875 15.8787 8.37868 15.375 9 15.375Z" fill="white"/>
</svg>
