<svg width="20" height="20" viewBox="0 0 20 20" fill="none" xmlns="http://www.w3.org/2000/svg">
<path fill-rule="evenodd" clip-rule="evenodd" d="M17.6086 11.7892C18.5749 10.7724 18.5749 9.22772 17.6086 8.211C15.9788 6.49619 13.1796 4.16675 10 4.16675C6.82041 4.16675 4.02125 6.49619 2.39143 8.211C1.42509 9.22772 1.42509 10.7724 2.39143 11.7892C4.02125 13.504 6.82041 15.8334 10 15.8334C13.1796 15.8334 15.9788 13.504 17.6086 11.7892ZM10 12.5001C11.3807 12.5001 12.5 11.3808 12.5 10.0001C12.5 8.61937 11.3807 7.50008 10 7.50008C8.61929 7.50008 7.50001 8.61937 7.50001 10.0001C7.50001 11.3808 8.61929 12.5001 10 12.5001Z" fill="#596066"/>
</svg>
