<svg width="214" height="214" viewBox="0 0 214 214" fill="none" xmlns="http://www.w3.org/2000/svg">
<g opacity="0.45">
<path d="M89.0775 202.854C87.2942 202.854 85.8675 202.497 84.7975 202.052C81.2308 200.714 75.1675 196.345 75.1675 182.524V125.012H54.3025C42.3542 125.012 38.0742 119.394 36.5583 116.095C35.0425 112.707 33.705 105.841 41.5517 96.835L109.051 20.1516C118.146 9.8083 125.547 10.5216 129.113 11.8591C132.68 13.1966 138.743 17.5658 138.743 31.3866V88.8991H159.608C171.557 88.8991 175.837 94.5166 177.353 97.8158C178.868 101.204 180.206 108.07 172.359 117.076L104.86 193.759C98.5292 200.982 93.0008 202.854 89.0775 202.854ZM124.209 24.4316C123.942 24.7883 122.069 25.68 119.127 29.0683L51.6275 105.752C49.1308 108.605 48.7742 110.388 48.7742 110.745C48.9525 110.834 50.5575 111.726 54.3025 111.726H81.855C85.5108 111.726 88.5425 114.757 88.5425 118.413V182.613C88.5425 187.072 89.345 189.033 89.7017 189.568C89.9692 189.212 91.8417 188.32 94.7842 184.932L162.283 108.248C164.78 105.395 165.137 103.612 165.137 103.255C164.958 103.166 163.353 102.274 159.608 102.274H132.056C128.4 102.274 125.368 99.2425 125.368 95.5866V31.3866C125.458 26.9283 124.566 25.0558 124.209 24.4316Z" fill="#E5E7EA"/>
</g>
</svg>
