<svg width="300" height="300" viewBox="0 0 300 300" fill="none" xmlns="http://www.w3.org/2000/svg">
<path d="M124.875 284.375C122.375 284.375 120.375 283.875 118.875 283.25C113.875 281.375 105.375 275.25 105.375 255.875V175.25H76.125C59.375 175.25 53.375 167.375 51.25 162.75C49.125 158 47.25 148.375 58.25 135.75L152.875 28.25C165.625 13.75 176 14.75 181 16.625C186 18.5 194.5 24.625 194.5 44V124.625H223.75C240.5 124.625 246.5 132.5 248.625 137.125C250.75 141.875 252.625 151.5 241.625 164.125L147 271.625C138.125 281.75 130.375 284.375 124.875 284.375ZM174.125 34.25C173.75 34.75 171.125 36 167 40.75L72.375 148.25C68.875 152.25 68.375 154.75 68.375 155.25C68.625 155.375 70.875 156.625 76.125 156.625H114.75C119.875 156.625 124.125 160.875 124.125 166V256C124.125 262.25 125.25 265 125.75 265.75C126.125 265.25 128.75 264 132.875 259.25L227.5 151.75C231 147.75 231.5 145.25 231.5 144.75C231.25 144.625 229 143.375 223.75 143.375H185.125C180 143.375 175.75 139.125 175.75 134V44C175.875 37.75 174.625 35.125 174.125 34.25Z" fill="#E5E7EA"/>
</svg>
