<svg width="36" height="36" viewBox="0 0 36 36" fill="none" xmlns="http://www.w3.org/2000/svg">
<path fill-rule="evenodd" clip-rule="evenodd" d="M3.88757 13.5676L16.8905 7.73873C17.6006 7.42042 18.3994 7.42042 19.1095 7.73873L32.1124 13.5676C32.703 13.8324 32.9988 14.4142 33 14.9966L33 15V24C33 24.6213 32.4963 25.125 31.875 25.125C31.2537 25.125 30.75 24.6213 30.75 24V17.0431L19.1095 22.2613C18.3994 22.5796 17.6006 22.5796 16.8905 22.2613L3.88757 16.4324C2.70414 15.9019 2.70414 14.0981 3.88757 13.5676ZM9 25.5V21.1899L15.9702 24.3144C17.2657 24.8952 18.7343 24.8952 20.0298 24.3144L27 21.1899V25.5C27 27.1569 25.6569 28.5 24 28.5H12C10.3431 28.5 9 27.1569 9 25.5Z" fill="white"/>
</svg>
