<svg width="24" height="20" viewBox="0 0 24 20" fill="none" xmlns="http://www.w3.org/2000/svg">
<path fill-rule="evenodd" clip-rule="evenodd" d="M9.29289 0.292893C9.68342 -0.0976312 10.3166 -0.0976312 10.7071 0.292893C11.0976 0.683417 11.0976 1.31658 10.7071 1.70711L3.41421 9H23C23.5523 9 24 9.44771 24 10C24 10.5523 23.5523 11 23 11H3.41421L10.7071 18.2929C11.0976 18.6834 11.0976 19.3166 10.7071 19.7071C10.3166 20.0976 9.68342 20.0976 9.29289 19.7071L0.292892 10.7071C0.109835 10.524 0.0125847 10.2877 0.00114441 10.048C0.00038147 10.032 0 10.016 0 10M4.19617e-05 9.99077C0.0023613 9.73793 0.0999775 9.48581 0.292892 9.29289L9.29289 0.292893" fill="white"/>
</svg>
