<svg width="214" height="214" viewBox="0 0 214 214" fill="none" xmlns="http://www.w3.org/2000/svg">
<g opacity="0.45">
<path d="M107 203.389C100.848 203.389 95.0517 200.268 90.95 194.829L77.575 176.996C77.3075 176.639 76.2375 176.193 75.7917 176.104H71.3333C34.1508 176.104 11.1458 166.028 11.1458 115.917V71.3334C11.1458 31.9217 31.9217 11.1459 71.3333 11.1459H142.667C182.078 11.1459 202.854 31.9217 202.854 71.3334V115.917C202.854 155.328 182.078 176.104 142.667 176.104H138.208C137.495 176.104 136.871 176.461 136.425 176.996L123.05 194.829C118.948 200.268 113.153 203.389 107 203.389ZM71.3333 24.5209C39.4117 24.5209 24.5208 39.4117 24.5208 71.3334V115.917C24.5208 156.22 38.3417 162.729 71.3333 162.729H75.7917C80.3392 162.729 85.5108 165.315 88.275 168.971L101.65 186.804C104.771 190.906 109.229 190.906 112.35 186.804L125.725 168.971C128.668 165.048 133.304 162.729 138.208 162.729H142.667C174.588 162.729 189.479 147.838 189.479 115.917V71.3334C189.479 39.4117 174.588 24.5209 142.667 24.5209H71.3333Z" fill="#E5E7EA"/>
<path d="M107 107C102.007 107 98.0833 102.987 98.0833 98.0833C98.0833 93.1791 102.096 89.1666 107 89.1666C111.904 89.1666 115.917 93.1791 115.917 98.0833C115.917 102.987 111.993 107 107 107Z" fill="#E5E7EA"/>
<path d="M142.667 107C137.673 107 133.75 102.987 133.75 98.0833C133.75 93.1791 137.762 89.1666 142.667 89.1666C147.571 89.1666 151.583 93.1791 151.583 98.0833C151.583 102.987 147.66 107 142.667 107Z" fill="#E5E7EA"/>
<path d="M71.3333 107C66.34 107 62.4167 102.987 62.4167 98.0833C62.4167 93.1791 66.4292 89.1666 71.3333 89.1666C76.2375 89.1666 80.25 93.1791 80.25 98.0833C80.25 102.987 76.3267 107 71.3333 107Z" fill="#E5E7EA"/>
</g>
</svg>
