<svg width="28" height="28" viewBox="0 0 28 28" fill="none" xmlns="http://www.w3.org/2000/svg">
<path fill-rule="evenodd" clip-rule="evenodd" d="M14 2.33337C11.4227 2.33337 9.33333 4.42271 9.33333 7.00004V14C9.33333 16.5774 11.4227 18.6667 14 18.6667C16.5773 18.6667 18.6667 16.5774 18.6667 14V7.00004C18.6667 4.42271 16.5773 2.33337 14 2.33337ZM7 11.9584C7.48325 11.9584 7.875 12.3501 7.875 12.8334V14C7.875 17.3828 10.6173 20.125 14 20.125C17.3827 20.125 20.125 17.3828 20.125 14V12.8334C20.125 12.3501 20.5168 11.9584 21 11.9584C21.4832 11.9584 21.875 12.3501 21.875 12.8334V14C21.875 18.0535 18.8125 21.3917 14.875 21.827V23.9167H17.5C17.9832 23.9167 18.375 24.3085 18.375 24.7917C18.375 25.275 17.9832 25.6667 17.5 25.6667H10.5C10.0168 25.6667 9.625 25.275 9.625 24.7917C9.625 24.3085 10.0168 23.9167 10.5 23.9167H13.125V21.827C9.18754 21.3917 6.125 18.0535 6.125 14V12.8334C6.125 12.3501 6.51675 11.9584 7 11.9584Z" fill="white"/>
</svg>
