<svg width="214" height="214" viewBox="0 0 214 214" fill="none" xmlns="http://www.w3.org/2000/svg">
<g opacity="0.45">
<path d="M156.577 160.233H57.4233C21.935 160.233 11.1458 149.443 11.1458 113.955V57.4233C11.1458 21.935 21.935 11.1458 57.4233 11.1458H156.488C191.976 11.1458 202.765 21.935 202.765 57.4233V113.866C202.854 149.443 192.065 160.233 156.577 160.233ZM57.4233 24.5208C29.425 24.5208 24.5208 29.425 24.5208 57.4233V113.866C24.5208 141.864 29.425 146.768 57.4233 146.768H156.488C184.486 146.768 189.39 141.864 189.39 113.866V57.4233C189.39 29.425 184.486 24.5208 156.488 24.5208H57.4233V24.5208Z" fill="#E5E7EA"/>
<path d="M107 202.854C103.344 202.854 100.312 199.823 100.312 196.167V153.545C100.312 149.889 103.344 146.857 107 146.857C110.656 146.857 113.688 149.889 113.688 153.545V196.167C113.688 199.823 110.656 202.854 107 202.854Z" fill="#E5E7EA"/>
<path d="M196.167 122.604H17.8333C14.1775 122.604 11.1458 119.572 11.1458 115.917C11.1458 112.261 14.1775 109.229 17.8333 109.229H196.167C199.823 109.229 202.854 112.261 202.854 115.917C202.854 119.572 199.823 122.604 196.167 122.604Z" fill="#E5E7EA"/>
<path d="M147.125 202.854H66.875C63.2192 202.854 60.1875 199.823 60.1875 196.167C60.1875 192.511 63.2192 189.479 66.875 189.479H147.125C150.781 189.479 153.813 192.511 153.813 196.167C153.813 199.823 150.781 202.854 147.125 202.854Z" fill="#E5E7EA"/>
</g>
</svg>
