<svg width="28" height="28" viewBox="0 0 28 28" fill="none" xmlns="http://www.w3.org/2000/svg">
<path d="M15.5167 9.46171L17.0567 12.5417C17.2667 12.9617 17.8267 13.3817 18.2933 13.4517L21.0817 13.9184C22.8667 14.2217 23.2867 15.505 22.0033 16.7884L19.8333 18.97C19.4717 19.3317 19.2617 20.0434 19.3783 20.5567L19.9967 23.2517C20.4867 25.375 19.355 26.2034 17.4767 25.095L14.8633 23.5434C14.385 23.2634 13.615 23.2634 13.1367 23.5434L10.5117 25.0834C8.63334 26.1917 7.50167 25.3634 7.99167 23.24L8.61 20.545C8.72667 20.0434 8.51667 19.3317 8.155 18.9584L5.99667 16.8C4.71334 15.5167 5.13334 14.2217 6.91834 13.93L9.70667 13.4634C10.1733 13.3817 10.7333 12.9734 10.9433 12.5534L12.4833 9.47338C13.3117 7.79338 14.6883 7.79338 15.5167 9.46171Z" fill="white"/>
<path d="M7 11.375C6.52167 11.375 6.125 10.9784 6.125 10.5V2.33337C6.125 1.85504 6.52167 1.45837 7 1.45837C7.47833 1.45837 7.875 1.85504 7.875 2.33337V10.5C7.875 10.9784 7.47833 11.375 7 11.375Z" fill="white"/>
<path d="M21 11.375C20.5217 11.375 20.125 10.9784 20.125 10.5V2.33337C20.125 1.85504 20.5217 1.45837 21 1.45837C21.4783 1.45837 21.875 1.85504 21.875 2.33337V10.5C21.875 10.9784 21.4783 11.375 21 11.375Z" fill="white"/>
<path d="M14 5.54171C13.5217 5.54171 13.125 5.14504 13.125 4.66671V2.33337C13.125 1.85504 13.5217 1.45837 14 1.45837C14.4783 1.45837 14.875 1.85504 14.875 2.33337V4.66671C14.875 5.14504 14.4783 5.54171 14 5.54171Z" fill="white"/>
</svg>
