<svg width="24" height="20" viewBox="0 0 24 20" fill="none" xmlns="http://www.w3.org/2000/svg">
<path fill-rule="evenodd" clip-rule="evenodd" d="M14.7071 0.292893C14.3166 -0.0976312 13.6834 -0.0976312 13.2929 0.292893C12.9024 0.683417 12.9024 1.31658 13.2929 1.70711L20.5858 9H1C0.447715 9 0 9.44771 0 10C0 10.5523 0.447715 11 1 11H20.5858L13.2929 18.2929C12.9024 18.6834 12.9024 19.3166 13.2929 19.7071C13.6834 20.0976 14.3166 20.0976 14.7071 19.7071L23.7071 10.7071C23.8902 10.524 23.9874 10.2877 23.9989 10.048C23.9996 10.032 24 10.016 24 10M24 9.99077C23.9976 9.73793 23.9 9.48581 23.7071 9.29289L14.7071 0.292893" fill="#676E76"/>
</svg>
