<svg width="20" height="20" viewBox="0 0 20 20" fill="none" xmlns="http://www.w3.org/2000/svg">
<path d="M11.1583 4.34169L12.3333 6.69169C12.4917 7.01669 12.9167 7.32503 13.275 7.39169L15.4 7.74169C16.7583 7.96669 17.075 8.95003 16.1 9.93336L14.4417 11.5917C14.1667 11.8667 14.0083 12.4084 14.1 12.8L14.575 14.85C14.95 16.4667 14.0833 17.1 12.6583 16.25L10.6667 15.0667C10.3083 14.85 9.70833 14.85 9.35 15.0667L7.35833 16.25C5.93333 17.0917 5.06667 16.4667 5.44167 14.85L5.91667 12.8C5.99167 12.4 5.83333 11.8584 5.55833 11.5834L3.9 9.92503C2.925 8.95003 3.24167 7.96669 4.6 7.73336L6.725 7.38336C7.08333 7.32503 7.50833 7.00836 7.66667 6.68336L8.84167 4.33336C9.48333 3.06669 10.5167 3.06669 11.1583 4.34169Z" fill="#F1891E"/>
</svg>
