<svg width="214" height="214" viewBox="0 0 214 214" fill="none" xmlns="http://www.w3.org/2000/svg">
<g opacity="0.45">
<path d="M107.089 151.583C99.51 151.583 91.8417 149.622 85.8675 145.787L32.1892 110.745C22.2025 104.236 16.2283 93.2683 16.2283 81.32C16.2283 69.3717 22.2025 58.4042 32.1892 51.895L85.9567 16.9417C97.905 9.18417 116.541 9.18417 128.4 17.0308L181.811 52.0733C191.708 58.5825 197.683 69.55 197.683 81.4092C197.683 93.2683 191.708 104.236 181.811 110.745L128.4 145.787C122.426 149.711 114.758 151.583 107.089 151.583ZM107.089 24.5208C102.007 24.5208 96.9242 25.68 93.2683 28.1767L39.59 63.13C33.3483 67.2317 29.6925 73.83 29.6925 81.32C29.6925 88.81 33.2592 95.4083 39.59 99.51L93.2683 134.552C100.669 139.367 113.688 139.367 121.088 134.552L174.499 99.51C180.741 95.4083 184.308 88.81 184.308 81.32C184.308 73.83 180.741 67.2317 174.499 63.13L121.088 28.0875C117.343 25.7692 112.261 24.5208 107.089 24.5208Z" fill="#E5E7EA"/>
<path d="M107 202.854C103.077 202.854 99.0642 202.319 95.8542 201.249L67.41 191.798C53.9458 187.339 43.335 172.627 43.4242 158.449L43.5133 116.63C43.5133 112.974 46.545 109.943 50.2008 109.943C53.8567 109.943 56.8883 112.974 56.8883 116.63L56.7992 158.449C56.7992 166.831 63.7542 176.461 71.69 179.136L100.134 188.588C103.701 189.747 110.299 189.747 113.866 188.588L142.31 179.136C150.246 176.461 157.201 166.831 157.201 158.538V117.165C157.201 113.509 160.233 110.478 163.888 110.478C167.544 110.478 170.576 113.509 170.576 117.165V158.538C170.576 172.716 160.054 187.339 146.59 191.887L118.146 201.338C114.936 202.319 110.923 202.854 107 202.854Z" fill="#E5E7EA"/>
<path d="M190.817 140.438C187.161 140.438 184.129 137.406 184.129 133.75V80.25C184.129 76.5942 187.161 73.5625 190.817 73.5625C194.472 73.5625 197.504 76.5942 197.504 80.25V133.75C197.504 137.406 194.472 140.438 190.817 140.438Z" fill="#E5E7EA"/>
</g>
</svg>
