<svg width="20" height="20" viewBox="0 0 20 20" fill="none" xmlns="http://www.w3.org/2000/svg">
<path d="M14.025 13.0333C14.5833 12.6667 15.3167 13.0667 15.3167 13.7333V14.8083C15.3167 15.8667 14.4917 17 13.5 17.3333L10.8417 18.2167C10.375 18.375 9.61667 18.375 9.15833 18.2167L6.5 17.3333C5.5 17 4.68333 15.8667 4.68333 14.8083V13.725C4.68333 13.0667 5.41667 12.6667 5.96667 13.025L7.68333 14.1417C8.34167 14.5833 9.175 14.8 10.0083 14.8C10.8417 14.8 11.675 14.5833 12.3333 14.1417L14.025 13.0333Z" fill="#262C9C"/>
<path d="M16.65 5.3833L11.6583 2.1083C10.7583 1.51663 9.275 1.51663 8.375 2.1083L3.35833 5.3833C1.75 6.42497 1.75 8.7833 3.35833 9.8333L4.69167 10.7L8.375 13.1C9.275 13.6916 10.7583 13.6916 11.6583 13.1L15.3167 10.7L16.4583 9.94997V12.5C16.4583 12.8416 16.7417 13.125 17.0833 13.125C17.425 13.125 17.7083 12.8416 17.7083 12.5V8.39997C18.0417 7.32497 17.7 6.07497 16.65 5.3833Z" fill="#262C9C"/>
</svg>
