<svg width="20" height="20" viewBox="0 0 20 20" fill="none" xmlns="http://www.w3.org/2000/svg">
<path d="M8.95834 2.04148C9.53334 1.54981 10.475 1.54981 11.0583 2.04148L12.375 3.17481C12.625 3.39148 13.0917 3.56648 13.425 3.56648H14.8417C15.725 3.56648 16.45 4.29148 16.45 5.17481V6.59148C16.45 6.91648 16.625 7.39148 16.8417 7.64148L17.975 8.95815C18.4667 9.53315 18.4667 10.4748 17.975 11.0581L16.8417 12.3748C16.625 12.6248 16.45 13.0915 16.45 13.4248V14.8415C16.45 15.7248 15.725 16.4498 14.8417 16.4498H13.425C13.1 16.4498 12.625 16.6248 12.375 16.8415L11.0583 17.9748C10.4833 18.4665 9.54167 18.4665 8.95834 17.9748L7.64167 16.8415C7.39167 16.6248 6.925 16.4498 6.59167 16.4498H5.15C4.26667 16.4498 3.54167 15.7248 3.54167 14.8415V13.4165C3.54167 13.0915 3.36667 12.6248 3.15834 12.3748L2.03334 11.0498C1.55 10.4748 1.55 9.54148 2.03334 8.96648L3.15834 7.64148C3.36667 7.39148 3.54167 6.92481 3.54167 6.59981V5.16648C3.54167 4.28315 4.26667 3.55815 5.15 3.55815H6.59167C6.91667 3.55815 7.39167 3.38315 7.64167 3.16648L8.95834 2.04148Z" fill="#07BA4E"/>
<path d="M8.99166 12.6414C8.825 12.6414 8.66666 12.5748 8.55 12.4581L6.53333 10.4414C6.29166 10.1998 6.29166 9.79978 6.53333 9.55811C6.775 9.31645 7.175 9.31645 7.41666 9.55811L8.99166 11.1331L12.575 7.54978C12.8167 7.30811 13.2167 7.30811 13.4583 7.54978C13.7 7.79145 13.7 8.19145 13.4583 8.43311L9.43333 12.4581C9.31666 12.5748 9.15833 12.6414 8.99166 12.6414Z" fill="white"/>
</svg>
