<svg width="28" height="28" viewBox="0 0 28 28" fill="none" xmlns="http://www.w3.org/2000/svg">
<path d="M14 25.6668C20.4433 25.6668 25.6667 20.4435 25.6667 14.0002C25.6667 7.55684 20.4433 2.3335 14 2.3335C7.5567 2.3335 2.33336 7.55684 2.33336 14.0002C2.33336 15.7635 2.72456 17.4355 3.42492 18.934L2.55634 24.2913C2.44683 24.9668 3.03287 25.5502 3.70785 25.4377L9.01814 24.5527C10.529 25.2672 12.2178 25.6668 14 25.6668Z" stroke="white" stroke-width="2" stroke-linecap="square" stroke-linejoin="round"/>
<path d="M18.6667 17.6298V17.1209C18.6667 16.4887 18.2818 15.9203 17.6949 15.6855L17.1506 15.4678C16.5421 15.2244 15.8486 15.4881 15.5556 16.0742C15.5556 16.0742 14.2593 15.815 13.2222 14.7779C12.1852 13.7409 11.9259 12.4446 11.9259 12.4446C12.5121 12.1515 12.7757 11.4581 12.5324 10.8496L12.3146 10.3053C12.0799 9.71836 11.5114 9.3335 10.8793 9.3335H10.3704C9.79763 9.3335 9.33333 9.79779 9.33333 10.3705C9.33333 14.9525 13.0477 18.6668 17.6296 18.6668C18.2024 18.6668 18.6667 18.2025 18.6667 17.6298Z" fill="white"/>
</svg>
