<svg width="100" height="100" viewBox="0 0 100 100" fill="none" xmlns="http://www.w3.org/2000/svg">
<g clip-path="url(#clip0_557_4)">
<rect width="100" height="100" rx="50" fill="white"/>
<g clip-path="url(#clip1_557_4)">
<mask id="mask0_557_4" style="mask-type:luminance" maskUnits="userSpaceOnUse" x="0" y="0" width="100" height="100">
<path d="M100 0H0V100H100V0Z" fill="white"/>
</mask>
<g mask="url(#mask0_557_4)">
<path d="M100 0H0V100H100V0Z" fill="white"/>
<path d="M100.05 0H0.0500488V100H100.05V0Z" fill="url(#paint0_linear_557_4)"/>
<path d="M100.05 0H0.0500488V100H100.05V0Z" fill="url(#paint1_linear_557_4)"/>
<path d="M100.05 0H0.0500488V100H100.05V0Z" fill="url(#paint2_linear_557_4)"/>
<path d="M100.05 0H0.0500488V100H100.05V0Z" fill="url(#paint3_linear_557_4)"/>
<path d="M100.05 0H0.0500488V100H100.05V0Z" fill="url(#paint4_linear_557_4)"/>
</g>
</g>
<path d="M39.31 67.3H33.3696L46.7173 30.2091H53.1829L66.5305 67.3H60.5902L50.104 36.9463H49.8143L39.31 67.3ZM40.3061 52.7752H59.576V57.484H40.3061V52.7752Z" fill="#29293E"/>
</g>
<defs>
<linearGradient id="paint0_linear_557_4" x1="82.45" y1="6.95" x2="26.15" y2="100" gradientUnits="userSpaceOnUse">
<stop stop-color="#FBD3C6"/>
<stop offset="0.510417" stop-color="#F2F8F2"/>
<stop offset="1" stop-color="#C4FDF5"/>
</linearGradient>
<linearGradient id="paint1_linear_557_4" x1="10.3501" y1="89.9" x2="44.7001" y2="57.25" gradientUnits="userSpaceOnUse">
<stop stop-color="#8DF9F9"/>
<stop offset="0.963542" stop-color="#8DF9F9" stop-opacity="0"/>
</linearGradient>
<linearGradient id="paint2_linear_557_4" x1="103.95" y1="71.5" x2="77.2001" y2="36.35" gradientUnits="userSpaceOnUse">
<stop stop-color="#FCECDE" stop-opacity="0.9"/>
<stop offset="1" stop-color="#FCECDE" stop-opacity="0"/>
</linearGradient>
<linearGradient id="paint3_linear_557_4" x1="87.1001" y1="12" x2="57.5501" y2="41.95" gradientUnits="userSpaceOnUse">
<stop stop-color="#FF7774"/>
<stop offset="1" stop-color="#FF7774" stop-opacity="0"/>
</linearGradient>
<linearGradient id="paint4_linear_557_4" x1="12.9001" y1="4.25" x2="50.1001" y2="34.3" gradientUnits="userSpaceOnUse">
<stop stop-color="#FFCB8F"/>
<stop offset="1" stop-color="#FFCB8F" stop-opacity="0"/>
</linearGradient>
<clipPath id="clip0_557_4">
<rect width="100" height="100" rx="50" fill="white"/>
</clipPath>
<clipPath id="clip1_557_4">
<rect width="100" height="100" fill="white"/>
</clipPath>
</defs>
</svg>
