<svg width="196" height="75" viewBox="0 0 196 75" fill="none" xmlns="http://www.w3.org/2000/svg">
<path d="M21.925 6.79987C17.473 2.67883 12.6419 -0.139696 7.42155 0.0790449C0.991706 0.327308 -2.15994 6.98285 4.24128 13.7761C8.12889 17.7072 12.3029 21.3442 16.7289 24.6574L18.7679 17.6498C11.1949 11.9708 3.90835 5.59804 5.90444 3.59343C9.04921 0.651545 14.893 5.57315 20.4735 11.7885L21.925 6.79987ZM194.941 68.8839C151.6 77.0268 73.976 52.137 43.9456 33.4245C37.5803 26.896 30.3177 14.4693 21.925 6.79987L20.4659 11.8146C25.7884 17.7995 30.8572 24.9962 32.8859 27.3949C31.4236 26.5456 25.0473 22.2885 18.7717 17.6368L16.7403 24.6183C27.1667 32.6215 38.2414 39.7426 49.8496 45.9079C58.292 55.9795 72.4293 67.1147 89.1544 74.8917L89.4839 74.1964C77.3206 67.7017 66.2417 59.3542 56.6448 49.4534C97.7973 68.2516 159.736 79.8036 195.289 70.5533L194.941 68.8839Z" fill="#F1891E"/>
</svg>
