<svg width="101" height="35" viewBox="0 0 101 35" fill="none" xmlns="http://www.w3.org/2000/svg">
<path d="M91.4406 9.92604C94.5093 10.3375 97.3534 10.0941 99.4675 8.46892C102.078 6.47603 101.437 2.77273 96.7699 1.81891C93.9926 1.32087 91.1822 1.02964 88.3618 0.947628L89.57 4.47088C94.3988 4.61544 99.3118 5.13365 99.0679 6.55665C98.6201 8.70828 94.7354 8.3717 90.5805 7.41784L91.4406 9.92604ZM1.00187 34.8573C16.6944 18.7245 56.3992 6.30196 74.4287 5.28642C79.0031 6.14033 85.685 9.19176 91.4406 9.92604L90.576 7.40475C86.5965 6.47128 82.3667 4.95759 80.8154 4.55277C81.6751 4.4775 85.5867 4.38036 89.5722 4.47743L88.3685 0.967274C81.6662 0.691307 74.9525 0.973888 68.297 1.81209C61.8148 0.090084 52.6436 -0.402445 43.3794 1.26674L43.4463 1.65368C50.4301 0.789837 57.5059 1.01777 64.4197 2.32929C41.724 6.57708 12.4839 19.9561 0.366217 34.2629L1.00187 34.8573Z" fill="#F1891E"/>
</svg>
