<svg width="357" height="17" viewBox="0 0 357 17" fill="none" xmlns="http://www.w3.org/2000/svg">
<path d="M319.136 5.62722C320.791 5.62632 322.445 5.62542 324.099 5.62542C324.249 5.87443 324.473 6.10089 324.767 6.28314C324.127 6.31292 323.487 6.3418 322.847 6.35804C321.64 6.38781 320.434 6.41847 319.23 6.44914C313.966 6.58357 308.7 6.71802 303.439 6.85065C301.029 6.912 298.619 7.00222 296.209 7.02748C292.445 7.06718 288.678 7.10779 284.912 7.14929C276.308 7.24132 267.701 7.33243 259.098 7.42626C242.393 7.60942 225.687 7.78535 208.983 7.96399C197.022 8.09301 185.063 8.34652 173.104 8.56035C155.086 8.88425 137.064 9.20816 119.046 9.53206C115.434 9.59702 111.821 9.7531 108.212 9.87039C97.9844 10.2033 87.7558 10.5344 77.5298 10.8683C67.4879 11.194 57.4481 11.5206 47.4061 11.8463C46.4762 11.877 45.5478 11.9067 44.6179 11.9374C47.324 11.7904 50.0306 11.6433 52.7371 11.5034C62.187 11.0144 71.6375 10.5236 81.0883 10.0337C84.3885 9.86228 87.6882 9.69178 90.9894 9.52126C92.6917 9.43284 94.3982 9.37777 96.1016 9.3065C105.929 8.9032 115.756 8.49991 125.585 8.09571C127.505 8.01541 129.428 7.91077 131.35 7.86024C134.118 7.78716 136.887 7.71499 139.655 7.64191C149.788 7.37575 159.921 7.1087 170.054 6.84255C172.283 6.7839 174.512 6.72521 176.741 6.66567C177.329 6.65033 177.916 6.64943 178.504 6.64131C180.069 6.62146 181.635 6.5989 183.2 6.57725C193.355 6.4365 203.509 6.29576 213.662 6.15592C218.341 6.09096 223.018 6.01608 227.697 5.98992C242.795 5.90782 257.89 5.80134 272.988 5.75533C288.372 5.70751 303.754 5.63534 319.136 5.62722ZM7.74926 8.52247C10.5785 8.54231 13.4078 8.42864 16.2339 8.36999C17.3848 8.34473 18.5351 8.30235 19.6844 8.26356C24.7524 8.09213 29.8204 7.9225 34.8899 7.75108C40.9507 7.54717 47.011 7.32791 53.0713 7.09965C61.728 6.77214 70.3848 6.44466 79.0388 6.11715C81.0239 6.04226 83.009 5.99081 84.9931 5.92855C90.0371 5.76615 95.0792 5.60645 100.123 5.44585C105.167 5.28525 110.211 5.12469 115.255 4.965C117.228 4.90184 119.205 4.82063 121.179 4.77733C129.227 4.6041 137.276 4.43446 145.323 4.26123C150.27 4.15748 155.22 4.05103 160.168 3.94457C162.105 3.90397 164.045 3.84171 165.984 3.82276C173.763 3.74697 181.541 3.66396 189.321 3.58456C196.998 3.50697 204.676 3.42939 212.353 3.3509C214.379 3.33105 216.407 3.34005 218.433 3.33464C223.445 3.32201 228.457 3.3085 233.468 3.29587C241.26 3.27512 249.053 3.25977 256.848 3.2345C259.396 3.22548 261.946 3.24623 264.494 3.25164C269.829 3.26427 275.165 3.2778 280.502 3.28953C280.944 3.29133 281.384 3.29314 281.826 3.29495C269.814 3.40412 257.802 3.51421 245.79 3.63601C240.775 3.68654 235.758 3.73616 230.741 3.78668C228.579 3.80833 226.411 3.81372 224.249 3.85162C216.991 3.97973 209.734 4.11867 202.479 4.2522C194.091 4.40558 185.703 4.55897 177.315 4.71235C175.905 4.73851 174.496 4.79266 173.088 4.83777C168.623 4.97762 164.156 5.11657 159.689 5.25642C150.629 5.53882 141.57 5.82389 132.508 6.10539C131.167 6.14779 129.828 6.21186 128.489 6.27411C124.064 6.48072 119.638 6.68735 115.213 6.89576C107.287 7.26658 99.3597 7.63468 91.4349 8.0091C89.2496 8.11196 87.0665 8.25723 84.8834 8.38264C79.8076 8.67225 74.7328 8.96186 69.657 9.25147C63.2058 9.61958 56.7525 9.97509 50.3034 10.3576C41.3256 10.8881 32.3502 11.4186 23.3754 11.9519C21.222 12.08 19.0689 12.2063 16.9154 12.3344C13.0564 12.5627 9.20941 12.8929 5.3583 13.1807C4.95124 13.2105 4.6046 13.39 4.6046 13.6913C4.6046 13.9801 4.94712 14.1903 5.3583 14.2029C6.76536 14.2444 8.17348 14.2868 9.58054 14.3265C9.40742 14.5746 9.30562 14.8453 9.30562 15.1232C9.30562 16.0976 10.5624 17.0594 12.0657 16.9971C23.0724 16.5316 34.0743 16.0263 45.0905 15.67C54.6536 15.3614 64.2184 15.0528 73.7805 14.7442C84.3537 14.4032 94.9268 14.0613 105.501 13.7193C108.83 13.612 112.158 13.5046 115.486 13.3963C116.445 13.3665 117.409 13.3241 118.368 13.3079C135.401 13.0002 152.434 12.7016 169.466 12.3984C178.569 12.2369 187.671 12.0755 196.773 11.9131C200.063 11.8544 203.349 11.8048 206.639 11.7687C224.06 11.5846 241.481 11.4006 258.902 11.2148C266.366 11.1345 273.833 11.0514 281.296 10.9711C287.669 10.9017 294.044 10.8719 300.413 10.7104C305.676 10.575 310.94 10.4397 316.205 10.3053C318.831 10.2385 321.463 10.1952 324.087 10.0834C330.063 9.82802 336.038 9.56996 342.013 9.29839C342.007 9.30381 342.003 9.30921 341.998 9.31372C341.661 9.70439 341.571 10.1781 341.748 10.6139C341.918 11.0352 342.335 11.4006 342.891 11.6208C343.414 11.8292 344.218 11.95 344.807 11.7912C346.11 11.4394 347.407 11.0803 348.698 10.714C348.671 10.7221 348.645 10.7293 348.618 10.7375C348.714 10.7095 348.808 10.6824 348.905 10.6554C349.016 10.6238 349.126 10.5922 349.237 10.5606C349.197 10.5715 349.157 10.5832 349.116 10.5949C349.806 10.3982 350.494 10.2006 351.182 10.0039C351.904 9.80002 352.626 9.59434 353.343 9.38051C354.126 9.14954 354.874 8.86802 355.627 8.59555C356.478 8.28789 357 7.61395 357 6.97246C356.997 6.63232 356.872 6.31744 356.621 6.02331C356.288 5.63626 355.64 5.23927 354.964 5.15897C354.297 5.08047 353.632 5.02003 352.96 4.96139C352.814 4.94966 352.663 4.94425 352.51 4.94425C352.058 4.94425 351.586 4.98755 351.152 5.0083C350.138 5.05702 349.129 5.15897 348.115 5.2095C347.286 5.2501 346.461 5.29069 345.633 5.33038C343.403 5.44046 341.177 5.55054 338.949 5.65881C338.373 5.68678 337.797 5.71022 337.221 5.73639C337.43 5.57489 337.581 5.39084 337.668 5.18153C337.773 5.01551 337.83 4.84138 337.845 4.66094C337.869 4.53282 337.894 4.4038 337.921 4.27568C337.919 4.10877 337.876 3.94999 337.797 3.79752C337.854 3.77947 337.913 3.76323 337.97 3.74518C338.389 3.57646 338.724 3.34998 338.973 3.06397C339.228 2.76804 339.354 2.44868 339.355 2.10583C339.354 1.76299 339.228 1.44539 338.973 1.14946C338.828 1.02135 338.682 0.893227 338.536 0.764208C338.187 0.529629 337.776 0.367212 337.301 0.276087C336.441 0.053236 335.54 0 334.631 0C333.887 0 333.138 0.0360851 332.401 0.0414982C331.331 0.0478134 330.26 0.0559559 329.188 0.0631733C327.672 0.0739994 326.156 0.0884209 324.641 0.0938339C320.638 0.107368 316.631 0.119995 312.629 0.135334C308.861 0.149769 305.094 0.147074 301.327 0.146172C297.903 0.142563 294.479 0.141665 291.057 0.15159C277.408 0.19219 263.762 0.206617 250.116 0.300449C239.882 0.369921 229.649 0.440302 219.415 0.510675C214.84 0.543156 210.268 0.590961 205.693 0.655922C195.438 0.802084 185.183 0.950062 174.929 1.09713C172.004 1.13953 169.079 1.18193 166.156 1.22343C164.46 1.24869 162.764 1.30823 161.068 1.35154C150.934 1.61228 140.798 1.87304 130.664 2.13288C127.57 2.21318 124.477 2.29259 121.384 2.37289C119.65 2.4153 117.916 2.4947 116.182 2.55695C106.115 2.92416 96.0481 3.29136 85.9812 3.65676C80.7837 3.84533 75.5905 4.05825 70.3966 4.2811C61.5034 4.66184 52.6102 5.04348 43.7176 5.42241C36.0127 5.74992 28.3046 6.03412 20.5981 6.33998C19.3757 6.38779 18.1546 6.43652 16.9357 6.48434C14.963 6.56283 12.9868 6.61608 11.011 6.67562C9.26038 6.72886 7.49936 6.76132 5.74286 6.73065C5.56615 6.42208 5.12277 6.17035 4.61644 6.19742C3.48337 6.25877 2.35283 6.34179 1.22229 6.4239C0.673383 6.4636 0.197665 6.64853 0.0418427 7.03378C-0.131278 7.45874 0.248098 7.94958 0.897335 8.05514C1.38862 8.13544 1.87764 8.21841 2.37093 8.2951C2.85436 8.36999 3.36481 8.38987 3.8545 8.41964C5.14978 8.49723 6.45092 8.51525 7.74926 8.52247Z" fill="#F1891E"/>
</svg>
